<mxfile host="app.diagrams.net" modified="2020-11-14T14:55:43.635Z" agent="5.0 (Windows NT 10.0; Win64; x64) AppleWebKit/537.36 (KHTML, like Gecko) Chrome/86.0.4240.193 Safari/537.36" etag="mmeyljnuZ8qUsIQKpaNr" version="13.9.8" type="github">
  <diagram id="xve9VSHDwe71K9TJrwwD" name="Page-1">
    <mxGraphModel dx="1038" dy="1749" grid="1" gridSize="10" guides="1" tooltips="1" connect="1" arrows="1" fold="1" page="1" pageScale="1" pageWidth="827" pageHeight="1169" math="0" shadow="0">
      <root>
        <mxCell id="0" />
        <mxCell id="1" parent="0" />
        <mxCell id="ukKqtIKaMFEU2Wy5thnZ-9" value="[5] A systematic review of Virtual Reality in education" style="text;whiteSpace=wrap;html=1;fontSize=11;" parent="1" vertex="1">
          <mxGeometry x="485" y="445" width="290" height="30" as="geometry" />
        </mxCell>
        <mxCell id="q7VHJqxjKiBXPJjG447g-40" value="&lt;h1 class=&quot;nova-e-text nova-e-text--size-xl nova-e-text--family-sans-serif nova-e-text--spacing-none nova-e-text--color-grey-900 research-detail-header-section__title&quot; style=&quot;margin-top: 0px; color: rgb(17, 17, 17); font-weight: 400; font-family: roboto, arial, sans-serif; font-size: 11px; line-height: 1.2; margin-bottom: 0px; padding: 10px 0px 5px; font-style: normal; letter-spacing: normal; text-align: left; text-indent: 0px; text-transform: none; word-spacing: 0px; background-color: rgb(255, 255, 255);&quot;&gt;[3] A Literature Survey: Is it Necessary to Develop a New Software Development Methodology for Virtual Reality Projects?&lt;/h1&gt;" style="text;whiteSpace=wrap;html=1;fontSize=11;" parent="1" vertex="1">
          <mxGeometry x="485" y="375" width="350" height="50" as="geometry" />
        </mxCell>
        <mxCell id="q7VHJqxjKiBXPJjG447g-33" value="" style="rounded=0;whiteSpace=wrap;html=1;fontSize=21;" parent="1" vertex="1">
          <mxGeometry x="630" y="-90" width="160" height="170" as="geometry" />
        </mxCell>
        <mxCell id="q7VHJqxjKiBXPJjG447g-1" style="edgeStyle=orthogonalEdgeStyle;rounded=0;orthogonalLoop=1;jettySize=auto;html=1;exitX=0.5;exitY=1;exitDx=0;exitDy=0;fontSize=17;" parent="1" source="q7VHJqxjKiBXPJjG447g-2" target="q7VHJqxjKiBXPJjG447g-6" edge="1">
          <mxGeometry relative="1" as="geometry" />
        </mxCell>
        <mxCell id="q7VHJqxjKiBXPJjG447g-2" value="" style="rounded=0;whiteSpace=wrap;html=1;fontSize=21;" parent="1" vertex="1">
          <mxGeometry x="290" y="90" width="140" height="160" as="geometry" />
        </mxCell>
        <mxCell id="q7VHJqxjKiBXPJjG447g-3" value="Prueba" style="rounded=0;whiteSpace=wrap;html=1;" parent="1" vertex="1">
          <mxGeometry x="680" y="540" width="90" height="30" as="geometry" />
        </mxCell>
        <mxCell id="q7VHJqxjKiBXPJjG447g-4" style="edgeStyle=orthogonalEdgeStyle;rounded=0;orthogonalLoop=1;jettySize=auto;html=1;exitX=0.5;exitY=0;exitDx=0;exitDy=0;entryX=0.5;entryY=1;entryDx=0;entryDy=0;fontSize=17;" parent="1" source="q7VHJqxjKiBXPJjG447g-5" target="q7VHJqxjKiBXPJjG447g-11" edge="1">
          <mxGeometry relative="1" as="geometry" />
        </mxCell>
        <mxCell id="q7VHJqxjKiBXPJjG447g-5" value="Planeamiento inicial" style="rounded=0;whiteSpace=wrap;html=1;" parent="1" vertex="1">
          <mxGeometry x="130" y="170" width="120" height="30" as="geometry" />
        </mxCell>
        <mxCell id="q7VHJqxjKiBXPJjG447g-6" value="Planeamiento" style="rounded=0;whiteSpace=wrap;html=1;" parent="1" vertex="1">
          <mxGeometry x="300" y="280" width="120" height="30" as="geometry" />
        </mxCell>
        <mxCell id="q7VHJqxjKiBXPJjG447g-7" value="Requerimientos" style="rounded=0;whiteSpace=wrap;html=1;" parent="1" vertex="1">
          <mxGeometry x="490" y="100" width="120" height="30" as="geometry" />
        </mxCell>
        <mxCell id="q7VHJqxjKiBXPJjG447g-8" value="Despliegue" style="rounded=0;whiteSpace=wrap;html=1;" parent="1" vertex="1">
          <mxGeometry x="930" y="480" width="120" height="40" as="geometry" />
        </mxCell>
        <mxCell id="q7VHJqxjKiBXPJjG447g-38" style="edgeStyle=orthogonalEdgeStyle;rounded=0;orthogonalLoop=1;jettySize=auto;html=1;exitX=0.5;exitY=0;exitDx=0;exitDy=0;entryX=1;entryY=0.5;entryDx=0;entryDy=0;" parent="1" source="q7VHJqxjKiBXPJjG447g-9" target="q7VHJqxjKiBXPJjG447g-24" edge="1">
          <mxGeometry relative="1" as="geometry" />
        </mxCell>
        <mxCell id="q7VHJqxjKiBXPJjG447g-9" value="Evaluación" style="rounded=0;whiteSpace=wrap;html=1;" parent="1" vertex="1">
          <mxGeometry x="350" y="420" width="80" height="40" as="geometry" />
        </mxCell>
        <mxCell id="q7VHJqxjKiBXPJjG447g-10" value="Iterativo e incremental" style="text;html=1;strokeColor=none;fillColor=none;align=center;verticalAlign=middle;whiteSpace=wrap;rounded=0;fontStyle=1;fontSize=21;" parent="1" vertex="1">
          <mxGeometry x="550" y="215" width="200" height="20" as="geometry" />
        </mxCell>
        <mxCell id="q7VHJqxjKiBXPJjG447g-30" style="edgeStyle=orthogonalEdgeStyle;rounded=0;orthogonalLoop=1;jettySize=auto;html=1;exitX=0;exitY=0.5;exitDx=0;exitDy=0;entryX=1;entryY=0.5;entryDx=0;entryDy=0;" parent="1" source="q7VHJqxjKiBXPJjG447g-11" target="q7VHJqxjKiBXPJjG447g-29" edge="1">
          <mxGeometry relative="1" as="geometry" />
        </mxCell>
        <mxCell id="q7VHJqxjKiBXPJjG447g-11" value="Definición de herramientas" style="rounded=0;whiteSpace=wrap;html=1;" parent="1" vertex="1">
          <mxGeometry x="130" y="90" width="120" height="40" as="geometry" />
        </mxCell>
        <mxCell id="q7VHJqxjKiBXPJjG447g-12" value="" style="html=1;shadow=0;dashed=0;align=center;verticalAlign=middle;shape=mxgraph.arrows2.bendArrow;dy=8.3;dx=22.8;notch=0;arrowHead=51;rounded=1;rotation=0;flipV=1;" parent="1" vertex="1">
          <mxGeometry x="180" y="210" width="280" height="160" as="geometry" />
        </mxCell>
        <mxCell id="q7VHJqxjKiBXPJjG447g-13" value="" style="html=1;shadow=0;dashed=0;align=center;verticalAlign=middle;shape=mxgraph.arrows2.bendArrow;dy=8.3;dx=22.8;notch=0;arrowHead=51;rounded=1;rotation=0;flipV=0;flipH=0;" parent="1" vertex="1">
          <mxGeometry x="440" y="140" width="190" height="170" as="geometry" />
        </mxCell>
        <mxCell id="q7VHJqxjKiBXPJjG447g-14" value="" style="html=1;shadow=0;dashed=0;align=center;verticalAlign=middle;shape=mxgraph.arrows2.bendArrow;dy=8.3;dx=22.8;notch=0;arrowHead=51;rounded=1;rotation=90;flipV=0;flipH=0;" parent="1" vertex="1">
          <mxGeometry x="672.5" y="122.5" width="165" height="230" as="geometry" />
        </mxCell>
        <mxCell id="q7VHJqxjKiBXPJjG447g-15" value="Análisis y diseño" style="rounded=0;whiteSpace=wrap;html=1;" parent="1" vertex="1">
          <mxGeometry x="640" y="100" width="120" height="30" as="geometry" />
        </mxCell>
        <mxCell id="q7VHJqxjKiBXPJjG447g-16" value="" style="html=1;shadow=0;dashed=0;align=center;verticalAlign=middle;shape=mxgraph.arrows2.bendArrow;dy=8.3;dx=22.8;notch=0;arrowHead=51;rounded=1;rotation=90;flipV=0;flipH=0;" parent="1" vertex="1">
          <mxGeometry x="864.38" y="305.63" width="132.5" height="201.25" as="geometry" />
        </mxCell>
        <mxCell id="q7VHJqxjKiBXPJjG447g-17" value="" style="html=1;shadow=0;dashed=0;align=center;verticalAlign=middle;shape=mxgraph.arrows2.bendArrow;dy=8.3;dx=22.8;notch=0;arrowHead=51;rounded=1;rotation=-180;flipV=0;flipH=0;" parent="1" vertex="1">
          <mxGeometry x="645" y="370" width="210" height="170" as="geometry" />
        </mxCell>
        <mxCell id="q7VHJqxjKiBXPJjG447g-18" value="" style="html=1;shadow=0;dashed=0;align=center;verticalAlign=middle;shape=mxgraph.arrows2.bendArrow;dy=8.3;dx=22.8;notch=0;arrowHead=51;rounded=1;rotation=-90;flipV=0;flipH=0;" parent="1" vertex="1">
          <mxGeometry x="456.88" y="354.38" width="135" height="206.25" as="geometry" />
        </mxCell>
        <mxCell id="q7VHJqxjKiBXPJjG447g-19" value="Identificación" style="rounded=0;whiteSpace=wrap;html=1;" parent="1" vertex="1">
          <mxGeometry x="300" y="105" width="120" height="30" as="geometry" />
        </mxCell>
        <mxCell id="q7VHJqxjKiBXPJjG447g-20" value="Justificación" style="rounded=0;whiteSpace=wrap;html=1;" parent="1" vertex="1">
          <mxGeometry x="300" y="140" width="120" height="30" as="geometry" />
        </mxCell>
        <mxCell id="q7VHJqxjKiBXPJjG447g-21" value="Basado en Moka" style="text;html=1;strokeColor=none;fillColor=none;align=center;verticalAlign=middle;whiteSpace=wrap;rounded=0;fontSize=17;" parent="1" vertex="1">
          <mxGeometry x="285" y="60" width="150" height="20" as="geometry" />
        </mxCell>
        <mxCell id="q7VHJqxjKiBXPJjG447g-22" style="edgeStyle=orthogonalEdgeStyle;rounded=0;orthogonalLoop=1;jettySize=auto;html=1;exitX=0;exitY=0.5;exitDx=0;exitDy=0;entryX=1;entryY=0.25;entryDx=0;entryDy=0;fontSize=12;" parent="1" source="q7VHJqxjKiBXPJjG447g-23" target="q7VHJqxjKiBXPJjG447g-25" edge="1">
          <mxGeometry relative="1" as="geometry" />
        </mxCell>
        <mxCell id="q7VHJqxjKiBXPJjG447g-23" value="Adquisición y formalización de conocimiento" style="rounded=0;whiteSpace=wrap;html=1;" parent="1" vertex="1">
          <mxGeometry x="300" y="180" width="120" height="50" as="geometry" />
        </mxCell>
        <mxCell id="q7VHJqxjKiBXPJjG447g-24" value="Encuesta de Usabilidad" style="rounded=0;whiteSpace=wrap;html=1;" parent="1" vertex="1">
          <mxGeometry x="260" y="370" width="80" height="40" as="geometry" />
        </mxCell>
        <mxCell id="q7VHJqxjKiBXPJjG447g-25" value="ICARE" style="rounded=0;whiteSpace=wrap;html=1;fontSize=12;fontStyle=1" parent="1" vertex="1">
          <mxGeometry x="220" y="220" width="50" height="20" as="geometry" />
        </mxCell>
        <mxCell id="q7VHJqxjKiBXPJjG447g-26" value="CI -CD" style="rounded=1;whiteSpace=wrap;html=1;fontSize=12;fontStyle=1" parent="1" vertex="1">
          <mxGeometry x="910" y="305.63" width="60" height="25" as="geometry" />
        </mxCell>
        <mxCell id="q7VHJqxjKiBXPJjG447g-27" value="Implementación" style="rounded=0;whiteSpace=wrap;html=1;" parent="1" vertex="1">
          <mxGeometry x="864.38" y="240" width="120" height="40" as="geometry" />
        </mxCell>
        <mxCell id="q7VHJqxjKiBXPJjG447g-28" value="Diseño arquitectura" style="rounded=0;whiteSpace=wrap;html=1;" parent="1" vertex="1">
          <mxGeometry x="130" y="40" width="120" height="40" as="geometry" />
        </mxCell>
        <mxCell id="q7VHJqxjKiBXPJjG447g-29" value="opciones en base a criterios" style="rounded=0;whiteSpace=wrap;html=1;fontSize=12;fontStyle=1" parent="1" vertex="1">
          <mxGeometry x="30" y="85" width="80" height="50" as="geometry" />
        </mxCell>
        <mxCell id="q7VHJqxjKiBXPJjG447g-31" value="Modelado 3D de las escenas VR" style="rounded=0;whiteSpace=wrap;html=1;" parent="1" vertex="1">
          <mxGeometry x="640" y="-80" width="140" height="40" as="geometry" />
        </mxCell>
        <mxCell id="wgjdgwg0XGl79N9iqUC4-11" style="edgeStyle=orthogonalEdgeStyle;rounded=0;orthogonalLoop=1;jettySize=auto;html=1;exitX=1;exitY=0.5;exitDx=0;exitDy=0;entryX=0;entryY=0.5;entryDx=0;entryDy=0;" edge="1" parent="1" source="q7VHJqxjKiBXPJjG447g-32" target="wgjdgwg0XGl79N9iqUC4-10">
          <mxGeometry relative="1" as="geometry" />
        </mxCell>
        <mxCell id="q7VHJqxjKiBXPJjG447g-32" value="Acceso libre al conocimiento" style="rounded=0;whiteSpace=wrap;html=1;" parent="1" vertex="1">
          <mxGeometry x="640" y="30" width="140" height="40" as="geometry" />
        </mxCell>
        <mxCell id="q7VHJqxjKiBXPJjG447g-35" value="[1] Building Virtual Reality Applications&lt;br style=&quot;font-size: 11px&quot;&gt;for engineering with knowledge-based approach" style="text;whiteSpace=wrap;html=1;fontSize=11;" parent="1" vertex="1">
          <mxGeometry x="485" y="325" width="910" height="40" as="geometry" />
        </mxCell>
        <mxCell id="q7VHJqxjKiBXPJjG447g-36" value="[1]" style="text;html=1;strokeColor=none;fillColor=none;align=center;verticalAlign=middle;whiteSpace=wrap;rounded=0;" parent="1" vertex="1">
          <mxGeometry x="790" y="30" width="40" height="20" as="geometry" />
        </mxCell>
        <mxCell id="q7VHJqxjKiBXPJjG447g-37" value="[2] Effective Design of Educational Virtual Reality&lt;br style=&quot;font-size: 11px;&quot;&gt;Applications for Medicine using KnowledgeEngineering Techniques" style="text;whiteSpace=wrap;html=1;fontSize=11;" parent="1" vertex="1">
          <mxGeometry x="485" y="355" width="380" height="40" as="geometry" />
        </mxCell>
        <mxCell id="ukKqtIKaMFEU2Wy5thnZ-1" value="[3]" style="text;html=1;strokeColor=none;fillColor=none;align=center;verticalAlign=middle;whiteSpace=wrap;rounded=0;" parent="1" vertex="1">
          <mxGeometry x="690" y="180" width="40" height="20" as="geometry" />
        </mxCell>
        <mxCell id="ukKqtIKaMFEU2Wy5thnZ-2" value="[2]" style="text;html=1;strokeColor=none;fillColor=none;align=center;verticalAlign=middle;whiteSpace=wrap;rounded=0;" parent="1" vertex="1">
          <mxGeometry x="394" y="40" width="40" height="20" as="geometry" />
        </mxCell>
        <mxCell id="ukKqtIKaMFEU2Wy5thnZ-3" value="[4] Web-based Virtual Reality development in&lt;br style=&quot;font-size: 11px;&quot;&gt;classroom: From learner’s perspectives" style="text;whiteSpace=wrap;html=1;fontSize=11;" parent="1" vertex="1">
          <mxGeometry x="485" y="415" width="250" height="40" as="geometry" />
        </mxCell>
        <mxCell id="ukKqtIKaMFEU2Wy5thnZ-4" value="REFERENCIAS" style="text;html=1;strokeColor=none;fillColor=none;align=center;verticalAlign=middle;whiteSpace=wrap;rounded=0;fontSize=11;fontStyle=1" parent="1" vertex="1">
          <mxGeometry x="515" y="305" width="40" height="20" as="geometry" />
        </mxCell>
        <mxCell id="ukKqtIKaMFEU2Wy5thnZ-8" value="[4]" style="text;html=1;strokeColor=none;fillColor=none;align=center;verticalAlign=middle;whiteSpace=wrap;rounded=0;" parent="1" vertex="1">
          <mxGeometry x="50" y="60" width="40" height="20" as="geometry" />
        </mxCell>
        <mxCell id="ukKqtIKaMFEU2Wy5thnZ-10" value="[5]" style="text;html=1;strokeColor=none;fillColor=none;align=center;verticalAlign=middle;whiteSpace=wrap;rounded=0;" parent="1" vertex="1">
          <mxGeometry x="210" y="370" width="40" height="20" as="geometry" />
        </mxCell>
        <mxCell id="wgjdgwg0XGl79N9iqUC4-1" value="test de conocimientos" style="rounded=0;whiteSpace=wrap;html=1;" vertex="1" parent="1">
          <mxGeometry x="250" y="420" width="90" height="40" as="geometry" />
        </mxCell>
        <mxCell id="wgjdgwg0XGl79N9iqUC4-2" value="Estrategias pedagogicas y no pedagogicos" style="rounded=0;whiteSpace=wrap;html=1;" vertex="1" parent="1">
          <mxGeometry x="640" y="-30" width="140" height="50" as="geometry" />
        </mxCell>
        <mxCell id="wgjdgwg0XGl79N9iqUC4-3" value="Factores pedagogicos" style="rounded=0;whiteSpace=wrap;html=1;" vertex="1" parent="1">
          <mxGeometry x="460" y="-20" width="150" height="40" as="geometry" />
        </mxCell>
        <mxCell id="wgjdgwg0XGl79N9iqUC4-9" style="edgeStyle=orthogonalEdgeStyle;rounded=0;orthogonalLoop=1;jettySize=auto;html=1;exitX=0;exitY=0.5;exitDx=0;exitDy=0;" edge="1" parent="1" source="wgjdgwg0XGl79N9iqUC4-5">
          <mxGeometry relative="1" as="geometry">
            <mxPoint x="420" y="-50" as="targetPoint" />
          </mxGeometry>
        </mxCell>
        <mxCell id="wgjdgwg0XGl79N9iqUC4-5" value="Competencias educativas" style="rounded=0;whiteSpace=wrap;html=1;" vertex="1" parent="1">
          <mxGeometry x="460" y="-70" width="150" height="40" as="geometry" />
        </mxCell>
        <mxCell id="wgjdgwg0XGl79N9iqUC4-6" value="Actividades" style="text;html=1;strokeColor=none;fillColor=none;align=center;verticalAlign=middle;whiteSpace=wrap;rounded=0;" vertex="1" parent="1">
          <mxGeometry x="360" y="-80" width="40" height="20" as="geometry" />
        </mxCell>
        <mxCell id="wgjdgwg0XGl79N9iqUC4-7" value="Capacidades" style="text;html=1;strokeColor=none;fillColor=none;align=center;verticalAlign=middle;whiteSpace=wrap;rounded=0;" vertex="1" parent="1">
          <mxGeometry x="354" y="-55" width="40" height="20" as="geometry" />
        </mxCell>
        <mxCell id="wgjdgwg0XGl79N9iqUC4-8" value="Evaluaciones" style="text;html=1;strokeColor=none;fillColor=none;align=center;verticalAlign=middle;whiteSpace=wrap;rounded=0;" vertex="1" parent="1">
          <mxGeometry x="354" y="-30" width="40" height="20" as="geometry" />
        </mxCell>
        <mxCell id="wgjdgwg0XGl79N9iqUC4-10" value="Adaptativo" style="rounded=0;whiteSpace=wrap;html=1;" vertex="1" parent="1">
          <mxGeometry x="835" y="35" width="102.5" height="30" as="geometry" />
        </mxCell>
        <mxCell id="wgjdgwg0XGl79N9iqUC4-13" value="Evaluación de alumnos (personalidad)" style="rounded=0;whiteSpace=wrap;html=1;" vertex="1" parent="1">
          <mxGeometry x="460" y="30" width="150" height="40" as="geometry" />
        </mxCell>
        <mxCell id="wgjdgwg0XGl79N9iqUC4-15" value="&lt;span style=&quot;color: rgb(32, 33, 36); font-family: roboto, arial, sans-serif; font-size: 13px; font-style: normal; font-weight: 400; letter-spacing: normal; text-align: left; text-indent: 0px; text-transform: none; word-spacing: 0px; background-color: rgb(255, 255, 255); display: inline; float: none;&quot;&gt;felder sylverman&lt;/span&gt;" style="text;whiteSpace=wrap;html=1;" vertex="1" parent="1">
          <mxGeometry x="837.5" y="-10" width="120" height="30" as="geometry" />
        </mxCell>
      </root>
    </mxGraphModel>
  </diagram>
</mxfile>
